<svg width="504" height="440" viewBox="0 0 504 440" fill="none" xmlns="http://www.w3.org/2000/svg">
<g filter="url(#filter0_d_2874_1442)">
<path d="M129.066 205.364H125.329" stroke="white" stroke-width="0.54" stroke-linecap="round" stroke-linejoin="round"/>
<path d="M173.875 205.364H170.139" stroke="white" stroke-width="0.54" stroke-linecap="round" stroke-linejoin="round"/>
<path d="M218.685 205.364H214.948" stroke="white" stroke-width="0.54" stroke-linecap="round" stroke-linejoin="round"/>
<path d="M196.28 205.364H192.543" stroke="white" stroke-width="0.54" stroke-linecap="round" stroke-linejoin="round"/>
<path d="M151.471 205.364H147.734" stroke="white" stroke-width="0.54" stroke-linecap="round" stroke-linejoin="round"/>
<path d="M84.257 205.364H80.5256" stroke="white" stroke-width="0.54" stroke-linecap="round" stroke-linejoin="round"/>
<path d="M106.662 205.364H102.925" stroke="white" stroke-width="0.54" stroke-linecap="round" stroke-linejoin="round"/>
<path d="M398.191 271.514H397.813" stroke="white" stroke-width="0.54" stroke-linecap="round" stroke-linejoin="round"/>
<path d="M433.104 341.716V328.216H435.804" stroke="white" stroke-width="0.54" stroke-linecap="round" stroke-linejoin="round"/>
<path d="M454.704 328.216H494.454H497.154V330.916V430.816V433.516H494.454H435.804H433.104V431.275" stroke="white" stroke-width="0.54" stroke-linecap="round" stroke-linejoin="round"/>
<path d="M433.102 428.53V344.414" stroke="white" stroke-width="0.54" stroke-linecap="round" stroke-linejoin="round"/>
<path d="M339.952 16.364V10.964V8.65277H326.452V10.964V16.364" stroke="white" stroke-width="0.54" stroke-linecap="round" stroke-linejoin="round"/>
<path d="M339.953 8.65189H326.453V10.9628H339.953V8.65189Z" stroke="white" stroke-width="0.54" stroke-linecap="round" stroke-linejoin="round"/>
<path d="M358.852 16.364V10.964V8.65277H345.352V10.964V16.364" stroke="white" stroke-width="0.54" stroke-linecap="round" stroke-linejoin="round"/>
<path d="M358.853 8.65189H345.353V10.9628H358.853V8.65189Z" stroke="white" stroke-width="0.54" stroke-linecap="round" stroke-linejoin="round"/>
<path d="M377.752 8.65277H364.252V16.364H377.752V8.65277Z" stroke="white" stroke-width="0.54" stroke-linecap="round" stroke-linejoin="round"/>
<path d="M377.753 8.65189H364.253V10.9628H377.753V8.65189Z" stroke="white" stroke-width="0.54" stroke-linecap="round" stroke-linejoin="round"/>
<path d="M396.652 16.364V10.964V8.65277H383.152V10.964V16.364" stroke="white" stroke-width="0.54" stroke-linecap="round" stroke-linejoin="round"/>
<path d="M396.653 8.65189H383.153V10.9628H396.653V8.65189Z" stroke="white" stroke-width="0.54" stroke-linecap="round" stroke-linejoin="round"/>
<path d="M415.552 8.65277H402.052V16.364H415.552V8.65277Z" stroke="white" stroke-width="0.54" stroke-linecap="round" stroke-linejoin="round"/>
<path d="M415.553 8.65189H402.053V10.9628H415.553V8.65189Z" stroke="white" stroke-width="0.54" stroke-linecap="round" stroke-linejoin="round"/>
<path d="M321.052 16.364V10.964V8.65277H307.552V10.964V16.364" stroke="white" stroke-width="0.54" stroke-linecap="round" stroke-linejoin="round"/>
<path d="M321.053 8.65189H307.553V10.9628H321.053V8.65189Z" stroke="white" stroke-width="0.54" stroke-linecap="round" stroke-linejoin="round"/>
<path d="M434.452 16.364V10.964V8.65277H420.952V10.964V16.364" stroke="white" stroke-width="0.54" stroke-linecap="round" stroke-linejoin="round"/>
<path d="M434.453 8.65189H420.953V10.9628H434.453V8.65189Z" stroke="white" stroke-width="0.54" stroke-linecap="round" stroke-linejoin="round"/>
<path d="M276.505 43.3604H270.716H268.405V56.8604H270.716H276.505" stroke="white" stroke-width="0.54" stroke-linecap="round" stroke-linejoin="round"/>
<path d="M268.403 43.3628V56.8628H270.714V43.3628H268.403Z" stroke="white" stroke-width="0.54" stroke-linecap="round" stroke-linejoin="round"/>
<path d="M276.502 174.314H270.714H268.402V187.814H270.714H276.502" stroke="white" stroke-width="0.54" stroke-linecap="round" stroke-linejoin="round"/>
<path d="M268.403 174.313V187.813H270.714V174.313H268.403Z" stroke="white" stroke-width="0.54" stroke-linecap="round" stroke-linejoin="round"/>
<path d="M276.502 155.414H270.714H268.402V168.914H270.714H276.502" stroke="white" stroke-width="0.54" stroke-linecap="round" stroke-linejoin="round"/>
<path d="M268.403 155.413V168.913H270.714V155.413H268.403Z" stroke="white" stroke-width="0.54" stroke-linecap="round" stroke-linejoin="round"/>
<path d="M276.502 136.514H270.714H268.402V150.014H270.714H276.502" stroke="white" stroke-width="0.54" stroke-linecap="round" stroke-linejoin="round"/>
<path d="M268.403 136.513V150.013H270.714V136.513H268.403Z" stroke="white" stroke-width="0.54" stroke-linecap="round" stroke-linejoin="round"/>
<path d="M276.502 117.614H270.714H268.402V131.114H270.714H276.502" stroke="white" stroke-width="0.54" stroke-linecap="round" stroke-linejoin="round"/>
<path d="M268.403 117.613V131.113H270.714V117.613H268.403Z" stroke="white" stroke-width="0.54" stroke-linecap="round" stroke-linejoin="round"/>
<path d="M276.502 98.714H270.714H268.402V112.214H270.714H276.502" stroke="white" stroke-width="0.54" stroke-linecap="round" stroke-linejoin="round"/>
<path d="M268.403 98.7128V112.213H270.714V98.7128H268.403Z" stroke="white" stroke-width="0.54" stroke-linecap="round" stroke-linejoin="round"/>
<path d="M473.214 172.964H465.502V186.464H473.214V172.964Z" stroke="white" stroke-width="0.54" stroke-linecap="round" stroke-linejoin="round"/>
<path d="M470.903 172.963V186.463H473.214V172.963H470.903Z" stroke="white" stroke-width="0.54" stroke-linecap="round" stroke-linejoin="round"/>
<path d="M473.214 154.064H465.502V167.564H473.214V154.064Z" stroke="white" stroke-width="0.54" stroke-linecap="round" stroke-linejoin="round"/>
<path d="M470.903 154.063V167.563H473.214V154.063H470.903Z" stroke="white" stroke-width="0.54" stroke-linecap="round" stroke-linejoin="round"/>
<path d="M473.214 135.164H465.502V148.664H473.214V135.164Z" stroke="white" stroke-width="0.54" stroke-linecap="round" stroke-linejoin="round"/>
<path d="M470.903 135.163V148.663H473.214V135.163H470.903Z" stroke="white" stroke-width="0.54" stroke-linecap="round" stroke-linejoin="round"/>
<path d="M473.214 116.264H465.502V129.764H473.214V116.264Z" stroke="white" stroke-width="0.54" stroke-linecap="round" stroke-linejoin="round"/>
<path d="M470.903 116.263V129.763H473.214V116.263H470.903Z" stroke="white" stroke-width="0.54" stroke-linecap="round" stroke-linejoin="round"/>
<path d="M465.502 97.364H470.902H473.214V110.864H470.902H465.502" stroke="white" stroke-width="0.54" stroke-linecap="round" stroke-linejoin="round"/>
<path d="M470.903 97.3628V110.863H473.214V97.3628H470.903Z" stroke="white" stroke-width="0.54" stroke-linecap="round" stroke-linejoin="round"/>
<path d="M90.4723 298.514V260.714M91.8223 260.714V298.514M139.882 255.314H91.8223M90.4723 255.314H88.8523V309.314H142.852V255.314H141.232" stroke="white" stroke-width="0.54" stroke-linecap="round" stroke-linejoin="round"/>
<path d="M90.4723 260.714H88.8523" stroke="white" stroke-width="0.54" stroke-linecap="round" stroke-linejoin="round"/>
<path d="M142.852 260.714H141.232" stroke="white" stroke-width="0.54" stroke-linecap="round" stroke-linejoin="round"/>
<path d="M139.882 260.714H91.8223" stroke="white" stroke-width="0.54" stroke-linecap="round" stroke-linejoin="round"/>
<path d="M90.4723 266.114H88.8523" stroke="white" stroke-width="0.54" stroke-linecap="round" stroke-linejoin="round"/>
<path d="M142.852 266.114H141.232" stroke="white" stroke-width="0.54" stroke-linecap="round" stroke-linejoin="round"/>
<path d="M139.882 266.114H91.8223" stroke="white" stroke-width="0.54" stroke-linecap="round" stroke-linejoin="round"/>
<path d="M139.882 271.514H91.8223" stroke="white" stroke-width="0.54" stroke-linecap="round" stroke-linejoin="round"/>
<path d="M142.852 271.514H141.232" stroke="white" stroke-width="0.54" stroke-linecap="round" stroke-linejoin="round"/>
<path d="M90.4723 271.514H88.8523" stroke="white" stroke-width="0.54" stroke-linecap="round" stroke-linejoin="round"/>
<path d="M139.882 276.914H91.8223" stroke="white" stroke-width="0.54" stroke-linecap="round" stroke-linejoin="round"/>
<path d="M142.852 276.914H141.232" stroke="white" stroke-width="0.54" stroke-linecap="round" stroke-linejoin="round"/>
<path d="M90.4723 276.914H88.8523" stroke="white" stroke-width="0.54" stroke-linecap="round" stroke-linejoin="round"/>
<path d="M90.4723 282.314H88.8523" stroke="white" stroke-width="0.54" stroke-linecap="round" stroke-linejoin="round"/>
<path d="M142.852 282.314H141.232" stroke="white" stroke-width="0.54" stroke-linecap="round" stroke-linejoin="round"/>
<path d="M139.882 282.314H91.8223" stroke="white" stroke-width="0.54" stroke-linecap="round" stroke-linejoin="round"/>
<path d="M139.882 287.714H91.8223" stroke="white" stroke-width="0.54" stroke-linecap="round" stroke-linejoin="round"/>
<path d="M142.852 287.714H141.232" stroke="white" stroke-width="0.54" stroke-linecap="round" stroke-linejoin="round"/>
<path d="M90.4723 287.714H88.8523" stroke="white" stroke-width="0.54" stroke-linecap="round" stroke-linejoin="round"/>
<path d="M139.882 293.114H91.8223" stroke="white" stroke-width="0.54" stroke-linecap="round" stroke-linejoin="round"/>
<path d="M142.852 293.114H141.232" stroke="white" stroke-width="0.54" stroke-linecap="round" stroke-linejoin="round"/>
<path d="M90.4723 293.114H88.8523" stroke="white" stroke-width="0.54" stroke-linecap="round" stroke-linejoin="round"/>
<path d="M90.4723 298.514H88.8523" stroke="white" stroke-width="0.54" stroke-linecap="round" stroke-linejoin="round"/>
<path d="M142.852 298.514H141.232" stroke="white" stroke-width="0.54" stroke-linecap="round" stroke-linejoin="round"/>
<path d="M139.882 298.514H91.8223" stroke="white" stroke-width="0.54" stroke-linecap="round" stroke-linejoin="round"/>
<path d="M139.882 303.914H91.8223" stroke="white" stroke-width="0.54" stroke-linecap="round" stroke-linejoin="round"/>
<path d="M142.852 303.914H141.232" stroke="white" stroke-width="0.54" stroke-linecap="round" stroke-linejoin="round"/>
<path d="M90.4723 303.914H88.8523" stroke="white" stroke-width="0.54" stroke-linecap="round" stroke-linejoin="round"/>
<path d="M88.8529 255.313H83.4529V309.313H88.8529V255.313Z" stroke="white" stroke-width="0.54" stroke-linecap="round" stroke-linejoin="round"/>
<path d="M90.4724 260.714V255.314V253.694H91.8224V255.314V260.714" stroke="white" stroke-width="0.54" stroke-linecap="round" stroke-linejoin="round"/>
<path d="M90.4724 298.514V303.914V307.694H91.8224V303.914V298.514" stroke="white" stroke-width="0.54" stroke-linecap="round" stroke-linejoin="round"/>
<path d="M141.233 253.693H139.883V307.693H141.233V253.693Z" stroke="white" stroke-width="0.54" stroke-linecap="round" stroke-linejoin="round"/>
<path d="M32.4224 298.514V267.734H31.0724V298.514M81.8324 309.314H83.4524V266.114H29.4524V309.314H31.0724M80.4824 309.314H32.4224" stroke="white" stroke-width="0.54" stroke-linecap="round" stroke-linejoin="round"/>
<path d="M29.4529 266.113H83.4529" stroke="white" stroke-width="0.54" stroke-linecap="round" stroke-linejoin="round"/>
<path d="M80.4824 271.514H32.4224" stroke="white" stroke-width="0.54" stroke-linecap="round" stroke-linejoin="round"/>
<path d="M83.4523 271.514H81.8323" stroke="white" stroke-width="0.54" stroke-linecap="round" stroke-linejoin="round"/>
<path d="M31.0724 271.514H29.4524" stroke="white" stroke-width="0.54" stroke-linecap="round" stroke-linejoin="round"/>
<path d="M80.4824 276.914H32.4224" stroke="white" stroke-width="0.54" stroke-linecap="round" stroke-linejoin="round"/>
<path d="M83.4523 276.914H81.8323" stroke="white" stroke-width="0.54" stroke-linecap="round" stroke-linejoin="round"/>
<path d="M31.0724 276.914H29.4524" stroke="white" stroke-width="0.54" stroke-linecap="round" stroke-linejoin="round"/>
<path d="M31.0724 282.314H29.4524" stroke="white" stroke-width="0.54" stroke-linecap="round" stroke-linejoin="round"/>
<path d="M83.4523 282.314H81.8323" stroke="white" stroke-width="0.54" stroke-linecap="round" stroke-linejoin="round"/>
<path d="M80.4824 282.314H32.4224" stroke="white" stroke-width="0.54" stroke-linecap="round" stroke-linejoin="round"/>
<path d="M80.4824 287.714H32.4224" stroke="white" stroke-width="0.54" stroke-linecap="round" stroke-linejoin="round"/>
<path d="M83.4523 287.714H81.8323" stroke="white" stroke-width="0.54" stroke-linecap="round" stroke-linejoin="round"/>
<path d="M31.0724 287.714H29.4524" stroke="white" stroke-width="0.54" stroke-linecap="round" stroke-linejoin="round"/>
<path d="M80.4824 293.114H32.4224" stroke="white" stroke-width="0.54" stroke-linecap="round" stroke-linejoin="round"/>
<path d="M83.4523 293.114H81.8323" stroke="white" stroke-width="0.54" stroke-linecap="round" stroke-linejoin="round"/>
<path d="M31.0724 293.114H29.4524" stroke="white" stroke-width="0.54" stroke-linecap="round" stroke-linejoin="round"/>
<path d="M31.0724 298.514H29.4524" stroke="white" stroke-width="0.54" stroke-linecap="round" stroke-linejoin="round"/>
<path d="M83.4523 298.514H81.8323" stroke="white" stroke-width="0.54" stroke-linecap="round" stroke-linejoin="round"/>
<path d="M80.4824 298.514H32.4224" stroke="white" stroke-width="0.54" stroke-linecap="round" stroke-linejoin="round"/>
<path d="M80.4824 303.914H32.4224" stroke="white" stroke-width="0.54" stroke-linecap="round" stroke-linejoin="round"/>
<path d="M83.4523 303.914H81.8323" stroke="white" stroke-width="0.54" stroke-linecap="round" stroke-linejoin="round"/>
<path d="M31.0724 303.914H29.4524" stroke="white" stroke-width="0.54" stroke-linecap="round" stroke-linejoin="round"/>
<path d="M80.4824 309.314H32.4224" stroke="white" stroke-width="0.54" stroke-linecap="round" stroke-linejoin="round"/>
<path d="M83.4523 309.314H81.8323" stroke="white" stroke-width="0.54" stroke-linecap="round" stroke-linejoin="round"/>
<path d="M31.0724 309.314H29.4524" stroke="white" stroke-width="0.54" stroke-linecap="round" stroke-linejoin="round"/>
<path d="M31.0724 298.514V303.914V309.314V310.934H32.4224V309.314V303.914V298.514" stroke="white" stroke-width="0.54" stroke-linecap="round" stroke-linejoin="round"/>
<path d="M81.8329 267.733H80.4829V310.933H81.8329V267.733Z" stroke="white" stroke-width="0.54" stroke-linecap="round" stroke-linejoin="round"/>
<path d="M164.453 341.713H148.253V374.113H164.453V341.713Z" stroke="white" stroke-width="0.54" stroke-linecap="round" stroke-linejoin="round"/>
<path d="M110.453 374.113V390.313H148.253V374.113H110.453Z" stroke="white" stroke-width="0.54" stroke-linecap="round" stroke-linejoin="round"/>
<path d="M164.453 325.513V341.713H148.253C148.253 332.772 155.512 325.513 164.453 325.513Z" stroke="white" stroke-width="0.54" stroke-linecap="round" stroke-linejoin="round"/>
<path d="M164.453 374.113H148.253V390.313H164.453V374.113Z" stroke="white" stroke-width="0.54" stroke-linecap="round" stroke-linejoin="round"/>
<path d="M110.453 374.113V390.313H94.2527C94.2527 381.372 101.512 374.113 110.453 374.113Z" stroke="white" stroke-width="0.54" stroke-linecap="round" stroke-linejoin="round"/>
<path d="M56.453 390.313C56.453 400.751 47.9912 409.213 37.553 409.213V390.313" stroke="white" stroke-width="0.54" stroke-linecap="round" stroke-linejoin="round"/>
<path d="M75.3529 390.313V409.213C64.9147 409.213 56.4529 400.751 56.4529 390.313" stroke="white" stroke-width="0.54" stroke-linecap="round" stroke-linejoin="round"/>
<path d="M142.853 309.313H164.453" stroke="white" stroke-width="0.54" stroke-linecap="round" stroke-linejoin="round"/>
<path d="M244.103 255.313H237.353V258.013H244.103V255.313Z" stroke="white" stroke-width="0.54" stroke-linecap="round" stroke-linejoin="round"/>
<path d="M398.191 271.514H397.813" stroke="white" stroke-width="0.54" stroke-linecap="round" stroke-linejoin="round"/>
<path d="M379.104 296.005V295.627" stroke="white" stroke-width="0.54" stroke-linecap="round" stroke-linejoin="round"/>
<path d="M433.104 328.216V341.716H379.104V314.716" stroke="white" stroke-width="0.54" stroke-linecap="round" stroke-linejoin="round"/>
<path d="M379.104 271.516V274.216V276.916" stroke="white" stroke-width="0.54" stroke-linecap="round" stroke-linejoin="round"/>
<path d="M376.402 295.814C386.841 295.814 395.302 304.276 395.302 314.714H376.402V344.414H433.102" stroke="white" stroke-width="0.54" stroke-linecap="round" stroke-linejoin="round"/>
<path d="M68.6209 24.4628V29.4341C68.6209 34.1445 72.4395 37.9628 77.1496 37.9628C81.8598 37.9628 85.6784 34.1442 85.6784 29.4341V24.4628H68.6206H68.6209Z" stroke="white" stroke-width="0.54" stroke-linecap="round" stroke-linejoin="round"/>
<path d="M196.853 24.4628H151.47V35.2628H196.853V24.4628Z" stroke="white" stroke-width="0.54" stroke-linecap="round" stroke-linejoin="round"/>
<path d="M154.17 32.5628H166.958V24.4628H154.17V32.5628Z" stroke="white" stroke-width="0.54" stroke-linecap="round" stroke-linejoin="round"/>
<path d="M167.767 32.5628H180.555V24.4628H167.767V32.5628Z" stroke="white" stroke-width="0.54" stroke-linecap="round" stroke-linejoin="round"/>
<path d="M181.365 32.5628H194.153V24.4628H181.365V32.5628Z" stroke="white" stroke-width="0.54" stroke-linecap="round" stroke-linejoin="round"/>
<path d="M231.953 24.4628H199.553V27.1628H231.953V24.4628Z" stroke="white" stroke-width="0.54" stroke-linecap="round" stroke-linejoin="round"/>
<path d="M468.202 48.9205V51.2317V56.2645V58.2139H485.072V56.2645V51.2317V48.9205" stroke="white" stroke-width="0.54" stroke-linecap="round" stroke-linejoin="round"/>
<path d="M485.073 56.2624H468.203V58.2131H485.073V56.2624Z" stroke="white" stroke-width="0.54" stroke-linecap="round" stroke-linejoin="round"/>
<path d="M468.202 40.5075V38.1909V33.1635V31.2141H485.072V33.1635V38.1909V40.5075" stroke="white" stroke-width="0.54" stroke-linecap="round" stroke-linejoin="round"/>
<path d="M485.073 31.2128H468.203V33.1636H485.073V31.2128Z" stroke="white" stroke-width="0.54" stroke-linecap="round" stroke-linejoin="round"/>
<path d="M483.79 36.9104H469.486C468.777 36.9104 468.203 37.4847 468.203 38.1931V51.2325C468.203 51.941 468.777 52.5153 469.486 52.5153H483.79C484.498 52.5153 485.073 51.941 485.073 51.2325V38.1931C485.073 37.4847 484.498 36.9104 483.79 36.9104Z" stroke="white" stroke-width="0.54" stroke-linecap="round" stroke-linejoin="round"/>
<path d="M295.403 91.9628H276.503V205.363H279.203C279.203 197.907 285.247 191.863 292.703 191.863C300.158 191.863 306.203 197.907 306.203 205.363H338.602V186.463H295.403V91.9628Z" stroke="white" stroke-width="0.54" stroke-linecap="round" stroke-linejoin="round"/>
<path d="M465.502 129.764V205.364H462.802C462.802 197.907 456.76 191.864 449.302 191.864C441.845 191.864 435.802 197.907 435.802 205.364L403.402 205.363V186.463L446.602 186.464V91.9639H465.502V116.264" stroke="white" stroke-width="0.54" stroke-linecap="round" stroke-linejoin="round"/>
<path d="M377.752 16.3639H435.802C435.802 23.8213 441.845 29.8639 449.302 29.8639C456.76 29.8639 462.802 23.8213 462.802 16.3639H465.502V63.6139H446.602V35.2639H295.402V63.6139H276.502V16.3639H279.202C279.202 23.8213 285.245 29.8639 292.702 29.8639C300.16 29.8639 306.202 23.8213 306.202 16.3639H364.252" stroke="white" stroke-width="0.54" stroke-linecap="round" stroke-linejoin="round"/>
<path d="M279.202 205.364C279.202 212.821 285.245 218.864 292.702 218.864C300.16 218.864 306.202 212.821 306.202 205.364" stroke="white" stroke-width="0.54" stroke-linecap="round" stroke-linejoin="round"/>
<path d="M435.802 205.364C435.802 212.821 441.845 218.864 449.302 218.864C456.76 218.864 462.802 212.821 462.802 205.364" stroke="white" stroke-width="0.54" stroke-linecap="round" stroke-linejoin="round"/>
<path d="M435.802 16.3639C435.802 8.90649 441.845 2.86389 449.302 2.86389C456.76 2.86389 462.802 8.90649 462.802 16.3639" stroke="white" stroke-width="0.54" stroke-linecap="round" stroke-linejoin="round"/>
<path d="M279.202 16.3639C279.202 8.90649 285.245 2.86389 292.702 2.86389C300.16 2.86389 306.202 8.90649 306.202 16.3639" stroke="white" stroke-width="0.54" stroke-linecap="round" stroke-linejoin="round"/>
<path d="M3.80261 139.318V125.818" stroke="white" stroke-width="0.54" stroke-linecap="round" stroke-linejoin="round"/>
<path d="M3.80261 124.468V110.968" stroke="white" stroke-width="0.54" stroke-linecap="round" stroke-linejoin="round"/>
<path d="M5.15264 89.3676H2.45264V110.968H5.15264V89.3676Z" stroke="white" stroke-width="0.54" stroke-linecap="round" stroke-linejoin="round"/>
<path d="M3.80261 89.33V79.0441" stroke="white" stroke-width="0.54" stroke-linecap="round" stroke-linejoin="round"/>
<path d="M3.80261 78.0157V67.73" stroke="white" stroke-width="0.54" stroke-linecap="round" stroke-linejoin="round"/>
<path d="M13.2526 21.7628H5.15264H2.45264V32.5628V67.7298H5.15264V32.5628H13.2526V21.7628Z" stroke="white" stroke-width="0.54" stroke-linecap="round" stroke-linejoin="round"/>
<path d="M102.927 204.013H84.2571V206.713H102.927V204.013Z" stroke="white" stroke-width="0.54" stroke-linecap="round" stroke-linejoin="round"/>
<path d="M125.332 204.013H106.661V206.713H125.332V204.013Z" stroke="white" stroke-width="0.54" stroke-linecap="round" stroke-linejoin="round"/>
<path d="M170.14 204.013H151.47V206.713H170.14V204.013Z" stroke="white" stroke-width="0.54" stroke-linecap="round" stroke-linejoin="round"/>
<path d="M192.544 204.013H173.874V206.713H192.544V204.013Z" stroke="white" stroke-width="0.54" stroke-linecap="round" stroke-linejoin="round"/>
<path d="M214.949 204.013H196.278V206.713H214.949V204.013Z" stroke="white" stroke-width="0.54" stroke-linecap="round" stroke-linejoin="round"/>
<path d="M129.066 204.013V206.713H147.736V204.013V174.313H129.066V204.013Z" stroke="white" stroke-width="0.54" stroke-linecap="round" stroke-linejoin="round"/>
<path d="M234.653 204.013H218.683V206.713H234.653H237.353V204.013V174.313H234.653V204.013Z" stroke="white" stroke-width="0.54" stroke-linecap="round" stroke-linejoin="round"/>
<path d="M234.653 21.7628H147.736H129.066H64.5527H61.8527H53.7527V32.5628H61.8527V204.013V206.713H64.5527H80.5229V204.013H64.5527V32.5628V24.4628H129.066V48.7628H147.736V24.4628H234.653V43.3628H237.353V21.7628H234.653Z" stroke="white" stroke-width="0.54" stroke-linecap="round" stroke-linejoin="round"/>
<path d="M403.402 186.463H338.602V192.763H403.402V186.463Z" stroke="white" stroke-width="0.54" stroke-linecap="round" stroke-linejoin="round"/>
<path d="M403.402 192.763H338.602V199.063H403.402V192.763Z" stroke="white" stroke-width="0.54" stroke-linecap="round" stroke-linejoin="round"/>
<path d="M289.101 88.9939V66.5839" stroke="white" stroke-width="0.54" stroke-linecap="round" stroke-linejoin="round"/>
<path d="M295.402 88.9939V66.5839" stroke="white" stroke-width="0.54" stroke-linecap="round" stroke-linejoin="round"/>
<path d="M295.402 90.3439V91.9639H289.101V90.3439" stroke="white" stroke-width="0.54" stroke-linecap="round" stroke-linejoin="round"/>
<path d="M289.101 65.2339V63.6139H295.402V65.2339" stroke="white" stroke-width="0.54" stroke-linecap="round" stroke-linejoin="round"/>
<path d="M282.804 88.9939V66.5839" stroke="white" stroke-width="0.54" stroke-linecap="round" stroke-linejoin="round"/>
<path d="M289.101 88.9939V66.5839" stroke="white" stroke-width="0.54" stroke-linecap="round" stroke-linejoin="round"/>
<path d="M289.101 90.3439V91.9639H282.804V90.3439" stroke="white" stroke-width="0.54" stroke-linecap="round" stroke-linejoin="round"/>
<path d="M282.804 65.2339V63.6139H289.101V65.2339" stroke="white" stroke-width="0.54" stroke-linecap="round" stroke-linejoin="round"/>
<path d="M278.123 88.9931V90.3431H298.103V88.9931H278.123Z" stroke="white" stroke-width="0.54" stroke-linecap="round" stroke-linejoin="round"/>
<path d="M298.103 66.5828V65.2328H278.123V66.5828H298.103Z" stroke="white" stroke-width="0.54" stroke-linecap="round" stroke-linejoin="round"/>
<path d="M433.103 274.213H419.603V293.113H433.103V274.213Z" stroke="white" stroke-width="0.54" stroke-linecap="round" stroke-linejoin="round"/>
<path d="M433.103 295.813H419.603V314.713H433.103V295.813Z" stroke="white" stroke-width="0.54" stroke-linecap="round" stroke-linejoin="round"/>
<path d="M381.802 328.213V341.713H400.702V328.213H381.802Z" stroke="white" stroke-width="0.54" stroke-linecap="round" stroke-linejoin="round"/>
<path d="M403.403 328.213V341.713H422.303V328.213H403.403Z" stroke="white" stroke-width="0.54" stroke-linecap="round" stroke-linejoin="round"/>
<path d="M26.7524 166.317H2.45239V139.317H5.15239V163.617H29.4524V179.941H26.7524V166.317Z" stroke="white" stroke-width="0.54" stroke-linecap="round" stroke-linejoin="round"/>
<path d="M29.4524 201.541H26.7524V198.652C27.6326 198.776 28.5344 198.841 29.4524 198.841V201.541Z" stroke="white" stroke-width="0.54" stroke-linecap="round" stroke-linejoin="round"/>
<path d="M29.4524 223.141H26.7524V220.252C27.6326 220.376 28.5344 220.441 29.4524 220.441V223.141Z" stroke="white" stroke-width="0.54" stroke-linecap="round" stroke-linejoin="round"/>
<path d="M37.5524 390.314V398.414H29.4524V393.014H26.7524V241.852C27.6326 241.976 28.5344 242.041 29.4524 242.041V390.314H37.5524Z" stroke="white" stroke-width="0.54" stroke-linecap="round" stroke-linejoin="round"/>
<path d="M398.191 271.514H397.813M435.802 274.214V314.714M454.513 314.714H494.452M379.102 271.514H298.102V255.314H287.302V325.514H194.152V255.314H164.452V263.414H167.152V258.014H191.452V328.214H287.302V339.014H167.152V282.125C166.272 282.249 165.37 282.314 164.452 282.314V390.314H75.3523V398.414H83.4523V393.014H167.152V341.714H314.065C314.767 343.166 315.485 344.614 316.23 346.039C316.597 346.757 316.975 347.47 317.359 348.178C318.12 349.593 318.903 351.002 319.708 352.39C320.107 353.086 320.512 353.778 320.928 354.469C321.754 355.846 322.597 357.212 323.455 358.562C323.887 359.242 324.325 359.912 324.767 360.581C326.09 362.59 327.457 364.561 328.866 366.505C329.8 367.801 330.761 369.081 331.739 370.35C333.202 372.251 334.709 374.114 336.253 375.944C337.025 376.862 337.808 377.77 338.602 378.666C340.184 380.464 341.81 382.225 343.473 383.947C344.305 384.811 345.147 385.664 345.995 386.507C353.36 393.813 361.423 400.423 370.073 406.217C371.407 407.108 372.752 407.977 374.113 408.831C375.468 409.684 376.84 410.521 378.227 411.331C378.919 411.736 379.615 412.141 380.317 412.535C383.811 414.517 387.386 416.374 391.042 418.097C392.5 418.788 393.974 419.458 395.459 420.1C396.199 420.424 396.944 420.743 397.694 421.056C399.19 421.683 400.697 422.287 402.214 422.865C409.045 425.479 416.098 427.644 423.339 429.324C424.948 429.696 426.568 430.047 428.194 430.371C429.824 430.695 431.461 430.998 433.102 431.273M435.802 430.814V428.967M433.102 428.53C382.439 419.884 338.878 387.025 316.495 340.542L315.76 339.014H298.102V274.214H376.402V276.914H395.302C395.302 287.352 386.84 295.814 376.402 295.814M416.904 274.216V271.516H435.804M497.154 314.716V317.416H454.704M416.904 274.216H433.104V317.416H435.804" stroke="white" stroke-width="0.54" stroke-linecap="round" stroke-linejoin="round"/>
<path d="M433.102 428.53V344.414" stroke="white" stroke-width="0.54" stroke-linecap="round" stroke-linejoin="round"/>
<path d="M435.802 430.814V428.967V347.114V330.914" stroke="white" stroke-width="0.54" stroke-linecap="round" stroke-linejoin="round"/>
<path d="M433.102 431.273V433.514H435.802" stroke="white" stroke-width="0.54" stroke-linecap="round" stroke-linejoin="round"/>
<path d="M494.452 330.914H454.513" stroke="white" stroke-width="0.54" stroke-linecap="round" stroke-linejoin="round"/>
<path d="M237.353 256.663H194.155" stroke="white" stroke-width="0.54" stroke-linecap="round" stroke-linejoin="round"/>
<path d="M287.301 256.663H244.103" stroke="white" stroke-width="0.54" stroke-linecap="round" stroke-linejoin="round"/>
<path d="M164.453 263.413H183.353C183.353 273.851 174.891 282.313 164.453 282.313" stroke="white" stroke-width="0.54" stroke-linecap="round" stroke-linejoin="round"/>
<path d="M29.4526 223.141H10.5526C10.5526 233.579 19.0144 242.041 29.4526 242.041" stroke="white" stroke-width="0.54" stroke-linecap="round" stroke-linejoin="round"/>
<path d="M29.4526 201.541H10.5526C10.5526 211.979 19.0144 220.441 29.4526 220.441" stroke="white" stroke-width="0.54" stroke-linecap="round" stroke-linejoin="round"/>
<path d="M29.4526 179.941H10.5526C10.5526 190.379 19.0144 198.841 29.4526 198.841" stroke="white" stroke-width="0.54" stroke-linecap="round" stroke-linejoin="round"/>
<path d="M126.366 24.4628H92.4466C90.9554 24.4628 89.7466 25.6716 89.7466 27.1628V39.6889C89.7466 41.1801 90.9554 42.3889 92.4466 42.3889H126.366C127.857 42.3889 129.066 41.1801 129.066 39.6889V27.1628C129.066 25.6716 127.857 24.4628 126.366 24.4628V24.4628ZM121.286 25.8028C121.657 25.8028 121.958 26.1036 121.958 26.4743C121.958 26.845 121.657 27.1458 121.286 27.1458C120.915 27.1458 120.615 26.8453 120.615 26.4743C120.615 26.1033 120.915 25.8028 121.286 25.8028ZM115.886 25.8028C116.257 25.8028 116.558 26.1036 116.558 26.4743C116.558 26.845 116.257 27.1458 115.886 27.1458C115.515 27.1458 115.215 26.8453 115.215 26.4743C115.215 26.1033 115.515 25.8028 115.886 25.8028ZM102.926 25.8028C103.297 25.8028 103.598 26.1036 103.598 26.4743C103.598 26.845 103.297 27.1458 102.926 27.1458C102.555 27.1458 102.255 26.8453 102.255 26.4743C102.255 26.1033 102.555 25.8028 102.926 25.8028ZM97.5261 25.8028C97.8971 25.8028 98.1976 26.1036 98.1976 26.4743C98.1976 26.845 97.8971 27.1458 97.5261 27.1458C97.1551 27.1458 96.8546 26.8453 96.8546 26.4743C96.8546 26.1033 97.1551 25.8028 97.5261 25.8028ZM108.731 41.0389H93.2747C92.0718 41.0389 91.0966 40.0637 91.0966 38.8608V30.6909C91.0966 29.4881 92.0718 28.5128 93.2747 28.5128H99.5511V26.4778C99.5511 26.105 99.8532 25.8028 100.226 25.8028C100.599 25.8028 100.901 26.105 100.901 26.4778V28.5128H108.731V41.0389ZM127.716 38.8608C127.716 40.0637 126.74 41.0389 125.538 41.0389H110.081V28.5128H117.911V26.4778C117.911 26.105 118.213 25.8028 118.586 25.8028C118.959 25.8028 119.261 26.105 119.261 26.4778V28.5128H125.538C126.74 28.5128 127.716 29.4881 127.716 30.6909V38.8608V38.8608Z" stroke="white" stroke-width="0.54" stroke-linecap="round" stroke-linejoin="round"/>
<path d="M119.26 28.5139V32.1697C119.26 32.5423 118.957 32.8447 118.585 32.8447C118.212 32.8447 117.91 32.5423 117.91 32.1697V28.5139" stroke="white" stroke-width="0.54" stroke-linecap="round" stroke-linejoin="round"/>
<path d="M100.9 28.5139V32.1697C100.9 32.5423 100.597 32.8447 100.225 32.8447C99.8522 32.8447 99.5498 32.5423 99.5498 32.1697V28.5139" stroke="white" stroke-width="0.54" stroke-linecap="round" stroke-linejoin="round"/>
<path d="M81.4221 96.7969V100.545V102.494H64.5525V100.545V94.9447V93.2005" stroke="white" stroke-width="0.54" stroke-linecap="round" stroke-linejoin="round"/>
<path d="M81.4228 100.542H64.553V102.493H81.4228V100.542Z" stroke="white" stroke-width="0.54" stroke-linecap="round" stroke-linejoin="round"/>
<path d="M82.783 96.7969V100.545V102.494H99.6526V100.545V94.9447V93.2005" stroke="white" stroke-width="0.54" stroke-linecap="round" stroke-linejoin="round"/>
<path d="M99.6528 100.542H82.783V102.493H99.6528V100.542Z" stroke="white" stroke-width="0.54" stroke-linecap="round" stroke-linejoin="round"/>
<path d="M81.4221 81.191V77.4434V75.494H64.5525V77.4434V83.0432V84.7874" stroke="white" stroke-width="0.54" stroke-linecap="round" stroke-linejoin="round"/>
<path d="M81.4231 75.4928H64.5532V77.4436H81.4231V75.4928Z" stroke="white" stroke-width="0.54" stroke-linecap="round" stroke-linejoin="round"/>
<path d="M82.783 81.191V77.4434V75.494H99.6526V77.4434V83.0432V84.7874" stroke="white" stroke-width="0.54" stroke-linecap="round" stroke-linejoin="round"/>
<path d="M99.6528 75.4928H82.783V77.4436H99.6528V75.4928Z" stroke="white" stroke-width="0.54" stroke-linecap="round" stroke-linejoin="round"/>
<path d="M97.8027 81.1904H66.4033C65.3814 81.1904 64.553 82.0188 64.553 83.0407V94.945C64.553 95.9669 65.3814 96.7953 66.4033 96.7953H97.8027C98.8246 96.7953 99.653 95.9669 99.653 94.945V83.0407C99.653 82.0188 98.8246 81.1904 97.8027 81.1904Z" stroke="white" stroke-width="0.54" stroke-linecap="round" stroke-linejoin="round"/>
<path d="M81.4221 129.197V132.944V134.894H64.5525V132.944V127.345V125.6" stroke="white" stroke-width="0.54" stroke-linecap="round" stroke-linejoin="round"/>
<path d="M81.4228 132.942H64.553V134.893H81.4228V132.942Z" stroke="white" stroke-width="0.54" stroke-linecap="round" stroke-linejoin="round"/>
<path d="M82.783 129.197V132.944V134.894H99.6526V132.944V127.345V125.6" stroke="white" stroke-width="0.54" stroke-linecap="round" stroke-linejoin="round"/>
<path d="M99.6528 132.942H82.783V134.893H99.6528V132.942Z" stroke="white" stroke-width="0.54" stroke-linecap="round" stroke-linejoin="round"/>
<path d="M81.4221 113.591V109.843V107.894H64.5525V109.843V115.443V117.187" stroke="white" stroke-width="0.54" stroke-linecap="round" stroke-linejoin="round"/>
<path d="M81.4231 107.893H64.5532V109.844H81.4231V107.893Z" stroke="white" stroke-width="0.54" stroke-linecap="round" stroke-linejoin="round"/>
<path d="M82.783 113.591V109.843V107.894H99.6526V109.843V115.443V117.187" stroke="white" stroke-width="0.54" stroke-linecap="round" stroke-linejoin="round"/>
<path d="M99.6528 107.893H82.783V109.844H99.6528V107.893Z" stroke="white" stroke-width="0.54" stroke-linecap="round" stroke-linejoin="round"/>
<path d="M97.8027 113.59H66.4033C65.3814 113.59 64.553 114.419 64.553 115.441V127.345C64.553 128.367 65.3814 129.195 66.4033 129.195H97.8027C98.8246 129.195 99.653 128.367 99.653 127.345V115.441C99.653 114.419 98.8246 113.59 97.8027 113.59Z" stroke="white" stroke-width="0.54" stroke-linecap="round" stroke-linejoin="round"/>
<path d="M81.4221 161.597V165.344V167.294H64.5525V165.344V159.745V158.001" stroke="white" stroke-width="0.54" stroke-linecap="round" stroke-linejoin="round"/>
<path d="M81.4228 165.342H64.553V167.293H81.4228V165.342Z" stroke="white" stroke-width="0.54" stroke-linecap="round" stroke-linejoin="round"/>
<path d="M82.783 161.597V165.344V167.294H99.6526V165.344V159.745V158.001" stroke="white" stroke-width="0.54" stroke-linecap="round" stroke-linejoin="round"/>
<path d="M99.6528 165.342H82.783V167.293H99.6528V165.342Z" stroke="white" stroke-width="0.54" stroke-linecap="round" stroke-linejoin="round"/>
<path d="M81.4221 145.991V142.243V140.294H64.5525V142.243V147.843V149.587" stroke="white" stroke-width="0.54" stroke-linecap="round" stroke-linejoin="round"/>
<path d="M81.4231 140.293H64.5532V142.244H81.4231V140.293Z" stroke="white" stroke-width="0.54" stroke-linecap="round" stroke-linejoin="round"/>
<path d="M82.783 145.991V142.243V140.294H99.6526V142.243V147.843V149.587" stroke="white" stroke-width="0.54" stroke-linecap="round" stroke-linejoin="round"/>
<path d="M99.6528 140.293H82.783V142.244H99.6528V140.293Z" stroke="white" stroke-width="0.54" stroke-linecap="round" stroke-linejoin="round"/>
<path d="M97.8027 145.99H66.4033C65.3814 145.99 64.553 146.819 64.553 147.841V159.745C64.553 160.767 65.3814 161.595 66.4033 161.595H97.8027C98.8246 161.595 99.653 160.767 99.653 159.745V147.841C99.653 146.819 98.8246 145.99 97.8027 145.99Z" stroke="white" stroke-width="0.54" stroke-linecap="round" stroke-linejoin="round"/>
<path d="M81.4221 193.997V197.744V199.694H64.5525V197.744V192.145V190.401" stroke="white" stroke-width="0.54" stroke-linecap="round" stroke-linejoin="round"/>
<path d="M81.4228 197.742H64.553V199.693H81.4228V197.742Z" stroke="white" stroke-width="0.54" stroke-linecap="round" stroke-linejoin="round"/>
<path d="M82.783 193.997V197.744V199.694H99.6526V197.744V192.145V190.401" stroke="white" stroke-width="0.54" stroke-linecap="round" stroke-linejoin="round"/>
<path d="M99.6528 197.742H82.783V199.693H99.6528V197.742Z" stroke="white" stroke-width="0.54" stroke-linecap="round" stroke-linejoin="round"/>
<path d="M81.4221 178.391V174.643V172.694H64.5525V174.643V180.243V181.987" stroke="white" stroke-width="0.54" stroke-linecap="round" stroke-linejoin="round"/>
<path d="M81.4231 172.693H64.5532V174.644H81.4231V172.693Z" stroke="white" stroke-width="0.54" stroke-linecap="round" stroke-linejoin="round"/>
<path d="M82.783 178.391V174.643V172.694H99.6526V174.643V180.243V181.987" stroke="white" stroke-width="0.54" stroke-linecap="round" stroke-linejoin="round"/>
<path d="M99.6528 172.693H82.783V174.644H99.6528V172.693Z" stroke="white" stroke-width="0.54" stroke-linecap="round" stroke-linejoin="round"/>
<path d="M97.8027 178.39H66.4033C65.3814 178.39 64.553 179.219 64.553 180.241V192.145C64.553 193.167 65.3814 193.995 66.4033 193.995H97.8027C98.8246 193.995 99.653 193.167 99.653 192.145V180.241C99.653 179.219 98.8246 178.39 97.8027 178.39Z" stroke="white" stroke-width="0.54" stroke-linecap="round" stroke-linejoin="round"/>
<path d="M168.339 96.7969V100.545V102.494H151.469V100.545V94.9447V93.2005" stroke="white" stroke-width="0.54" stroke-linecap="round" stroke-linejoin="round"/>
<path d="M168.34 100.542H151.47V102.493H168.34V100.542Z" stroke="white" stroke-width="0.54" stroke-linecap="round" stroke-linejoin="round"/>
<path d="M169.7 96.7969V100.545V102.494H186.57V100.545V94.9447V93.2005" stroke="white" stroke-width="0.54" stroke-linecap="round" stroke-linejoin="round"/>
<path d="M186.57 100.542H169.7V102.493H186.57V100.542Z" stroke="white" stroke-width="0.54" stroke-linecap="round" stroke-linejoin="round"/>
<path d="M168.339 81.191V77.4434V75.494H151.469V77.4434V83.0432V84.7874" stroke="white" stroke-width="0.54" stroke-linecap="round" stroke-linejoin="round"/>
<path d="M168.34 75.4928H151.47V77.4436H168.34V75.4928Z" stroke="white" stroke-width="0.54" stroke-linecap="round" stroke-linejoin="round"/>
<path d="M169.7 81.191V77.4434V75.494H186.57V77.4434V83.0432V84.7874" stroke="white" stroke-width="0.54" stroke-linecap="round" stroke-linejoin="round"/>
<path d="M186.57 75.4928H169.7V77.4436H186.57V75.4928Z" stroke="white" stroke-width="0.54" stroke-linecap="round" stroke-linejoin="round"/>
<path d="M184.719 81.1904H153.32C152.298 81.1904 151.47 82.0188 151.47 83.0407V94.945C151.47 95.9669 152.298 96.7953 153.32 96.7953H184.719C185.741 96.7953 186.57 95.9669 186.57 94.945V83.0407C186.57 82.0188 185.741 81.1904 184.719 81.1904Z" stroke="white" stroke-width="0.54" stroke-linecap="round" stroke-linejoin="round"/>
<path d="M168.339 129.197V132.944V134.894H151.469V132.944V127.345V125.6" stroke="white" stroke-width="0.54" stroke-linecap="round" stroke-linejoin="round"/>
<path d="M168.34 132.942H151.47V134.893H168.34V132.942Z" stroke="white" stroke-width="0.54" stroke-linecap="round" stroke-linejoin="round"/>
<path d="M169.7 129.197V132.944V134.894H186.57V132.944V127.345V125.6" stroke="white" stroke-width="0.54" stroke-linecap="round" stroke-linejoin="round"/>
<path d="M186.57 132.942H169.7V134.893H186.57V132.942Z" stroke="white" stroke-width="0.54" stroke-linecap="round" stroke-linejoin="round"/>
<path d="M168.339 113.591V109.843V107.894H151.469V109.843V115.443V117.187" stroke="white" stroke-width="0.54" stroke-linecap="round" stroke-linejoin="round"/>
<path d="M168.34 107.893H151.47V109.844H168.34V107.893Z" stroke="white" stroke-width="0.54" stroke-linecap="round" stroke-linejoin="round"/>
<path d="M169.7 113.591V109.843V107.894H186.57V109.843V115.443V117.187" stroke="white" stroke-width="0.54" stroke-linecap="round" stroke-linejoin="round"/>
<path d="M186.57 107.893H169.7V109.844H186.57V107.893Z" stroke="white" stroke-width="0.54" stroke-linecap="round" stroke-linejoin="round"/>
<path d="M184.719 113.59H153.32C152.298 113.59 151.47 114.419 151.47 115.441V127.345C151.47 128.367 152.298 129.195 153.32 129.195H184.719C185.741 129.195 186.57 128.367 186.57 127.345V115.441C186.57 114.419 185.741 113.59 184.719 113.59Z" stroke="white" stroke-width="0.54" stroke-linecap="round" stroke-linejoin="round"/>
<path d="M168.339 161.597V165.344V167.294H151.469V165.344V159.745V158.001" stroke="white" stroke-width="0.54" stroke-linecap="round" stroke-linejoin="round"/>
<path d="M168.34 165.342H151.47V167.293H168.34V165.342Z" stroke="white" stroke-width="0.54" stroke-linecap="round" stroke-linejoin="round"/>
<path d="M169.7 161.597V165.344V167.294H186.57V165.344V159.745V158.001" stroke="white" stroke-width="0.54" stroke-linecap="round" stroke-linejoin="round"/>
<path d="M186.57 165.342H169.7V167.293H186.57V165.342Z" stroke="white" stroke-width="0.54" stroke-linecap="round" stroke-linejoin="round"/>
<path d="M168.339 145.991V142.243V140.294H151.469V142.243V147.843V149.587" stroke="white" stroke-width="0.54" stroke-linecap="round" stroke-linejoin="round"/>
<path d="M168.34 140.293H151.47V142.244H168.34V140.293Z" stroke="white" stroke-width="0.54" stroke-linecap="round" stroke-linejoin="round"/>
<path d="M169.7 145.991V142.243V140.294H186.57V142.243V147.843V149.587" stroke="white" stroke-width="0.54" stroke-linecap="round" stroke-linejoin="round"/>
<path d="M186.57 140.293H169.7V142.244H186.57V140.293Z" stroke="white" stroke-width="0.54" stroke-linecap="round" stroke-linejoin="round"/>
<path d="M184.719 145.99H153.32C152.298 145.99 151.47 146.819 151.47 147.841V159.745C151.47 160.767 152.298 161.595 153.32 161.595H184.719C185.741 161.595 186.57 160.767 186.57 159.745V147.841C186.57 146.819 185.741 145.99 184.719 145.99Z" stroke="white" stroke-width="0.54" stroke-linecap="round" stroke-linejoin="round"/>
<path d="M168.339 193.997V197.744V199.694H151.469V197.744V192.145V190.401" stroke="white" stroke-width="0.54" stroke-linecap="round" stroke-linejoin="round"/>
<path d="M168.34 197.742H151.47V199.693H168.34V197.742Z" stroke="white" stroke-width="0.54" stroke-linecap="round" stroke-linejoin="round"/>
<path d="M169.7 193.997V197.744V199.694H186.57V197.744V192.145V190.401" stroke="white" stroke-width="0.54" stroke-linecap="round" stroke-linejoin="round"/>
<path d="M186.57 197.742H169.7V199.693H186.57V197.742Z" stroke="white" stroke-width="0.54" stroke-linecap="round" stroke-linejoin="round"/>
<path d="M168.339 178.391V174.643V172.694H151.469V174.643V180.243V181.987" stroke="white" stroke-width="0.54" stroke-linecap="round" stroke-linejoin="round"/>
<path d="M168.34 172.693H151.47V174.644H168.34V172.693Z" stroke="white" stroke-width="0.54" stroke-linecap="round" stroke-linejoin="round"/>
<path d="M169.7 178.391V174.643V172.694H186.57V174.643V180.243V181.987" stroke="white" stroke-width="0.54" stroke-linecap="round" stroke-linejoin="round"/>
<path d="M186.57 172.693H169.7V174.644H186.57V172.693Z" stroke="white" stroke-width="0.54" stroke-linecap="round" stroke-linejoin="round"/>
<path d="M184.719 178.39H153.32C152.298 178.39 151.47 179.219 151.47 180.241V192.145C151.47 193.167 152.298 193.995 153.32 193.995H184.719C185.741 193.995 186.57 193.167 186.57 192.145V180.241C186.57 179.219 185.741 178.39 184.719 178.39Z" stroke="white" stroke-width="0.54" stroke-linecap="round" stroke-linejoin="round"/>
<path d="M213.722 96.7969V100.545V102.494H196.852V100.545V94.9447V93.2005" stroke="white" stroke-width="0.54" stroke-linecap="round" stroke-linejoin="round"/>
<path d="M213.723 100.542H196.853V102.493H213.723V100.542Z" stroke="white" stroke-width="0.54" stroke-linecap="round" stroke-linejoin="round"/>
<path d="M215.083 96.7969V100.545V102.494H231.952V100.545V94.9447V93.2005" stroke="white" stroke-width="0.54" stroke-linecap="round" stroke-linejoin="round"/>
<path d="M231.953 100.542H215.083V102.493H231.953V100.542Z" stroke="white" stroke-width="0.54" stroke-linecap="round" stroke-linejoin="round"/>
<path d="M213.722 81.191V77.4434V75.494H196.852V77.4434V83.0432V84.7874" stroke="white" stroke-width="0.54" stroke-linecap="round" stroke-linejoin="round"/>
<path d="M213.723 75.4928H196.853V77.4436H213.723V75.4928Z" stroke="white" stroke-width="0.54" stroke-linecap="round" stroke-linejoin="round"/>
<path d="M215.083 81.191V77.4434V75.494H231.952V77.4434V83.0432V84.7874" stroke="white" stroke-width="0.54" stroke-linecap="round" stroke-linejoin="round"/>
<path d="M231.953 75.4928H215.083V77.4436H231.953V75.4928Z" stroke="white" stroke-width="0.54" stroke-linecap="round" stroke-linejoin="round"/>
<path d="M230.102 81.1904H198.703C197.681 81.1904 196.853 82.0188 196.853 83.0407V94.945C196.853 95.9669 197.681 96.7953 198.703 96.7953H230.102C231.124 96.7953 231.953 95.9669 231.953 94.945V83.0407C231.953 82.0188 231.124 81.1904 230.102 81.1904Z" stroke="white" stroke-width="0.54" stroke-linecap="round" stroke-linejoin="round"/>
<path d="M213.722 129.197V132.944V134.894H196.852V132.944V127.345V125.6" stroke="white" stroke-width="0.54" stroke-linecap="round" stroke-linejoin="round"/>
<path d="M213.723 132.942H196.853V134.893H213.723V132.942Z" stroke="white" stroke-width="0.54" stroke-linecap="round" stroke-linejoin="round"/>
<path d="M215.083 129.197V132.944V134.894H231.952V132.944V127.345V125.6" stroke="white" stroke-width="0.54" stroke-linecap="round" stroke-linejoin="round"/>
<path d="M231.953 132.942H215.083V134.893H231.953V132.942Z" stroke="white" stroke-width="0.54" stroke-linecap="round" stroke-linejoin="round"/>
<path d="M213.722 113.591V109.843V107.894H196.852V109.843V115.443V117.187" stroke="white" stroke-width="0.54" stroke-linecap="round" stroke-linejoin="round"/>
<path d="M213.723 107.893H196.853V109.844H213.723V107.893Z" stroke="white" stroke-width="0.54" stroke-linecap="round" stroke-linejoin="round"/>
<path d="M215.083 113.591V109.843V107.894H231.952V109.843V115.443V117.187" stroke="white" stroke-width="0.54" stroke-linecap="round" stroke-linejoin="round"/>
<path d="M231.953 107.893H215.083V109.844H231.953V107.893Z" stroke="white" stroke-width="0.54" stroke-linecap="round" stroke-linejoin="round"/>
<path d="M230.102 113.59H198.703C197.681 113.59 196.853 114.419 196.853 115.441V127.345C196.853 128.367 197.681 129.195 198.703 129.195H230.102C231.124 129.195 231.953 128.367 231.953 127.345V115.441C231.953 114.419 231.124 113.59 230.102 113.59Z" stroke="white" stroke-width="0.54" stroke-linecap="round" stroke-linejoin="round"/>
<path d="M213.722 161.597V165.344V167.294H196.852V165.344V159.745V158.001" stroke="white" stroke-width="0.54" stroke-linecap="round" stroke-linejoin="round"/>
<path d="M213.723 165.342H196.853V167.293H213.723V165.342Z" stroke="white" stroke-width="0.54" stroke-linecap="round" stroke-linejoin="round"/>
<path d="M215.083 161.597V165.344V167.294H231.952V165.344V159.745V158.001" stroke="white" stroke-width="0.54" stroke-linecap="round" stroke-linejoin="round"/>
<path d="M231.953 165.342H215.083V167.293H231.953V165.342Z" stroke="white" stroke-width="0.54" stroke-linecap="round" stroke-linejoin="round"/>
<path d="M213.722 145.991V142.243V140.294H196.852V142.243V147.843V149.587" stroke="white" stroke-width="0.54" stroke-linecap="round" stroke-linejoin="round"/>
<path d="M213.723 140.293H196.853V142.244H213.723V140.293Z" stroke="white" stroke-width="0.54" stroke-linecap="round" stroke-linejoin="round"/>
<path d="M215.083 145.991V142.243V140.294H231.952V142.243V147.843V149.587" stroke="white" stroke-width="0.54" stroke-linecap="round" stroke-linejoin="round"/>
<path d="M231.953 140.293H215.083V142.244H231.953V140.293Z" stroke="white" stroke-width="0.54" stroke-linecap="round" stroke-linejoin="round"/>
<path d="M230.102 145.99H198.703C197.681 145.99 196.853 146.819 196.853 147.841V159.745C196.853 160.767 197.681 161.595 198.703 161.595H230.102C231.124 161.595 231.953 160.767 231.953 159.745V147.841C231.953 146.819 231.124 145.99 230.102 145.99Z" stroke="white" stroke-width="0.54" stroke-linecap="round" stroke-linejoin="round"/>
<path d="M213.722 193.997V197.744V199.694H196.852V197.744V192.145V190.401" stroke="white" stroke-width="0.54" stroke-linecap="round" stroke-linejoin="round"/>
<path d="M213.723 197.742H196.853V199.693H213.723V197.742Z" stroke="white" stroke-width="0.54" stroke-linecap="round" stroke-linejoin="round"/>
<path d="M215.083 193.997V197.744V199.694H231.952V197.744V192.145V190.401" stroke="white" stroke-width="0.54" stroke-linecap="round" stroke-linejoin="round"/>
<path d="M231.953 197.742H215.083V199.693H231.953V197.742Z" stroke="white" stroke-width="0.54" stroke-linecap="round" stroke-linejoin="round"/>
<path d="M213.722 178.391V174.643V172.694H196.852V174.643V180.243V181.987" stroke="white" stroke-width="0.54" stroke-linecap="round" stroke-linejoin="round"/>
<path d="M213.723 172.693H196.853V174.644H213.723V172.693Z" stroke="white" stroke-width="0.54" stroke-linecap="round" stroke-linejoin="round"/>
<path d="M215.083 178.391V174.643V172.694H231.952V174.643V180.243V181.987" stroke="white" stroke-width="0.54" stroke-linecap="round" stroke-linejoin="round"/>
<path d="M231.953 172.693H215.083V174.644H231.953V172.693Z" stroke="white" stroke-width="0.54" stroke-linecap="round" stroke-linejoin="round"/>
<path d="M230.102 178.39H198.703C197.681 178.39 196.853 179.219 196.853 180.241V192.145C196.853 193.167 197.681 193.995 198.703 193.995H230.102C231.124 193.995 231.953 193.167 231.953 192.145V180.241C231.953 179.219 231.124 178.39 230.102 178.39Z" stroke="white" stroke-width="0.54" stroke-linecap="round" stroke-linejoin="round"/>
<path d="M435.804 328.216V347.11C446.243 347.11 454.699 338.654 454.704 328.216V328.21" stroke="white" stroke-width="0.54" stroke-linecap="round" stroke-linejoin="round"/>
<path d="M454.704 317.41C454.704 316.498 454.64 315.596 454.515 314.716C453.921 310.574 451.988 306.864 449.169 304.045C445.746 300.627 441.026 298.51 435.804 298.51V317.41" stroke="white" stroke-width="0.54" stroke-linecap="round" stroke-linejoin="round"/>
<path d="M435.802 274.214H494.452V314.714" stroke="white" stroke-width="0.54" stroke-linecap="round" stroke-linejoin="round"/>
<path d="M494.452 317.414H497.152V314.714V274.214V271.514H494.452H435.802" stroke="white" stroke-width="0.54" stroke-linecap="round" stroke-linejoin="round"/>
<path d="M494.452 430.814H435.802" stroke="white" stroke-width="0.54" stroke-linecap="round" stroke-linejoin="round"/>
<path d="M497.152 430.814V433.514H494.452H435.802H433.102V431.273" stroke="white" stroke-width="0.54" stroke-linecap="round" stroke-linejoin="round"/>
<path d="M494.452 328.214H497.152V330.914V430.814V433.514H494.452" stroke="white" stroke-width="0.54" stroke-linecap="round" stroke-linejoin="round"/>
<path d="M494.452 430.814V330.914" stroke="white" stroke-width="0.54" stroke-linecap="round" stroke-linejoin="round"/>
<path d="M433.102 341.714H379.102" stroke="white" stroke-width="0.54" stroke-linecap="round" stroke-linejoin="round"/>
<path d="M379.104 296.005V295.627" stroke="white" stroke-width="0.54" stroke-linecap="round" stroke-linejoin="round"/>
<path d="M379.104 341.716V314.716" stroke="white" stroke-width="0.54" stroke-linecap="round" stroke-linejoin="round"/>
<path d="M376.405 271.516H379.105V274.216V276.916" stroke="white" stroke-width="0.54" stroke-linecap="round" stroke-linejoin="round"/>
<path d="M452.904 88.9939V66.5839" stroke="white" stroke-width="0.54" stroke-linecap="round" stroke-linejoin="round"/>
<path d="M446.602 88.9939V66.5839" stroke="white" stroke-width="0.54" stroke-linecap="round" stroke-linejoin="round"/>
<path d="M446.602 90.3439V91.9639H452.904V90.3439" stroke="white" stroke-width="0.54" stroke-linecap="round" stroke-linejoin="round"/>
<path d="M452.904 65.2339V63.6139H446.602V65.2339" stroke="white" stroke-width="0.54" stroke-linecap="round" stroke-linejoin="round"/>
<path d="M459.201 88.9939V66.5839" stroke="white" stroke-width="0.54" stroke-linecap="round" stroke-linejoin="round"/>
<path d="M452.904 88.9939V66.5839" stroke="white" stroke-width="0.54" stroke-linecap="round" stroke-linejoin="round"/>
<path d="M452.904 90.3439V91.9639H459.2V90.3439" stroke="white" stroke-width="0.54" stroke-linecap="round" stroke-linejoin="round"/>
<path d="M459.2 65.2339V63.6139H452.904V65.2339" stroke="white" stroke-width="0.54" stroke-linecap="round" stroke-linejoin="round"/>
<path d="M443.902 88.9928V90.3428H463.882V88.9928H443.902Z" stroke="white" stroke-width="0.54" stroke-linecap="round" stroke-linejoin="round"/>
<path d="M463.882 66.5828V65.2328H443.902V66.5828H463.882Z" stroke="white" stroke-width="0.54" stroke-linecap="round" stroke-linejoin="round"/>
<path d="M398.003 274.213C398.003 263.775 389.541 255.313 379.103 255.313V274.213" stroke="white" stroke-width="0.54" stroke-linecap="round" stroke-linejoin="round"/>
<path d="M398.003 274.213C398.003 263.775 406.465 255.313 416.903 255.313V274.213" stroke="white" stroke-width="0.54" stroke-linecap="round" stroke-linejoin="round"/>
<path d="M403.402 199.063H338.602V205.364H403.402V199.063Z" stroke="white" stroke-width="0.45846" stroke-linecap="round" stroke-linejoin="round"/>
</g>
<g filter="url(#filter1_d_2874_1442)">
<path d="M56.4529 375.672V347.11H115.852V227.191H265.702V248.294" stroke="url(#paint0_linear_2874_1442)" stroke-width="2.7" stroke-linecap="round" stroke-linejoin="round"/>
<path d="M56.4528 381.042C59.4188 381.042 61.8231 378.638 61.8231 375.672C61.8231 372.706 59.4188 370.301 56.4528 370.301C53.4869 370.301 51.0825 372.706 51.0825 375.672C51.0825 378.638 53.4869 381.042 56.4528 381.042Z" fill="url(#paint1_linear_2874_1442)"/>
<path d="M265.702 240.484H259.715C259.127 240.484 258.776 241.139 259.102 241.629L265.089 250.609C265.38 251.046 266.023 251.046 266.314 250.609L272.301 241.629C272.627 241.139 272.277 240.484 271.688 240.484H265.702Z" fill="url(#paint2_linear_2874_1442)"/>
</g>
<g filter="url(#filter2_d_2874_1442)">
<path d="M318.131 311.974H312.973V302.722H318.131V303.678H314.049V306.658H317.884V307.607H314.049V311.012H318.131V311.974ZM327.414 311.974H326.186L321.13 304.209H321.079C321.147 305.12 321.181 305.956 321.181 306.715V311.974H320.187V302.722H321.402L326.446 310.455H326.496C326.488 310.341 326.469 309.976 326.439 309.36C326.41 308.74 326.399 308.297 326.408 308.031V302.722H327.414V311.974ZM334.027 307.127H337.172V311.626C336.682 311.782 336.185 311.9 335.678 311.98C335.172 312.06 334.586 312.1 333.919 312.1C332.519 312.1 331.428 311.685 330.648 310.854C329.867 310.018 329.477 308.85 329.477 307.348C329.477 306.386 329.669 305.544 330.053 304.823C330.441 304.097 330.998 303.545 331.723 303.165C332.449 302.781 333.299 302.589 334.274 302.589C335.261 302.589 336.18 302.771 337.033 303.133L336.615 304.083C335.78 303.728 334.976 303.551 334.204 303.551C333.078 303.551 332.198 303.887 331.565 304.557C330.932 305.228 330.616 306.158 330.616 307.348C330.616 308.597 330.92 309.544 331.527 310.189C332.139 310.835 333.035 311.158 334.217 311.158C334.858 311.158 335.484 311.084 336.096 310.936V308.088H334.027V307.127ZM344.62 309.512C344.62 310.326 344.325 310.961 343.734 311.417C343.144 311.873 342.342 312.1 341.329 312.1C340.233 312.1 339.389 311.959 338.798 311.676V310.639C339.178 310.799 339.591 310.925 340.039 311.018C340.486 311.111 340.929 311.158 341.367 311.158C342.085 311.158 342.625 311.023 342.987 310.753C343.35 310.478 343.532 310.099 343.532 309.613C343.532 309.293 343.466 309.031 343.335 308.829C343.209 308.622 342.994 308.432 342.69 308.259C342.39 308.086 341.933 307.89 341.317 307.671C340.456 307.363 339.84 306.998 339.469 306.576C339.102 306.154 338.918 305.604 338.918 304.924C338.918 304.211 339.186 303.644 339.722 303.222C340.258 302.8 340.967 302.589 341.848 302.589C342.768 302.589 343.614 302.758 344.386 303.095L344.051 304.032C343.287 303.711 342.544 303.551 341.823 303.551C341.254 303.551 340.808 303.673 340.488 303.918C340.167 304.163 340.007 304.502 340.007 304.937C340.007 305.258 340.066 305.521 340.184 305.728C340.302 305.93 340.5 306.118 340.779 306.291C341.062 306.46 341.492 306.648 342.07 306.854C343.04 307.2 343.707 307.572 344.07 307.968C344.437 308.365 344.62 308.879 344.62 309.512ZM354.543 307.335C354.543 308.816 354.167 309.98 353.416 310.828C352.669 311.676 351.63 312.1 350.296 312.1C348.934 312.1 347.881 311.685 347.139 310.854C346.4 310.018 346.031 308.841 346.031 307.323C346.031 305.817 346.402 304.65 347.145 303.823C347.887 302.992 348.942 302.577 350.309 302.577C351.638 302.577 352.676 302.998 353.422 303.842C354.169 304.686 354.543 305.85 354.543 307.335ZM347.17 307.335C347.17 308.588 347.436 309.54 347.968 310.189C348.503 310.835 349.28 311.158 350.296 311.158C351.322 311.158 352.096 310.835 352.619 310.189C353.142 309.544 353.404 308.593 353.404 307.335C353.404 306.091 353.142 305.148 352.619 304.507C352.1 303.861 351.33 303.538 350.309 303.538C349.284 303.538 348.503 303.863 347.968 304.513C347.436 305.158 347.17 306.099 347.17 307.335ZM360.573 303.551C359.557 303.551 358.753 303.891 358.162 304.57C357.576 305.245 357.283 306.171 357.283 307.348C357.283 308.559 357.565 309.495 358.131 310.158C358.7 310.816 359.51 311.145 360.561 311.145C361.206 311.145 361.942 311.029 362.769 310.797V311.74C362.128 311.98 361.337 312.1 360.396 312.1C359.033 312.1 357.981 311.687 357.238 310.86C356.5 310.033 356.131 308.858 356.131 307.335C356.131 306.382 356.308 305.547 356.662 304.829C357.021 304.112 357.536 303.56 358.207 303.171C358.882 302.783 359.675 302.589 360.586 302.589C361.556 302.589 362.404 302.766 363.13 303.121L362.674 304.045C361.974 303.716 361.274 303.551 360.573 303.551Z" fill="white"/>
<path d="M204.931 286.153V277.767H209.13V279.445H206.608V281.122H208.812V282.799H206.608V284.476H209.27V286.154H204.93L204.931 286.153Z" fill="white"/>
<path d="M212.52 286.153H210.843V277.591H211.289L215.523 282.517V277.778H217.211V286.329H216.766L212.52 281.591V286.153Z" fill="white"/>
<path d="M222.983 286.199C217.448 286.199 217.166 277.908 222.983 277.696C223.98 277.661 224.789 277.954 224.942 278.001L224.743 279.702C224.415 279.561 223.875 279.374 222.983 279.397C219.594 279.514 219.746 284.522 222.983 284.522C223.135 284.522 223.3 284.498 223.452 284.475V281.953H225.153V285.636C224.508 286 223.781 286.199 222.983 286.199L222.983 286.199Z" fill="white"/>
<path d="M226.995 286.153V277.767H228.672V286.153H226.995Z" fill="white"/>
<path d="M232.237 286.153H230.56V277.591H231.005L235.239 282.517V277.778H236.927V286.329H236.482L232.236 281.591V286.153H232.237Z" fill="white"/>
<path d="M238.817 286.153V277.767H243.016V279.445H240.495V281.122H242.699V282.799H240.495V284.476H243.157V286.154H238.818L238.817 286.153Z" fill="white"/>
<path d="M244.729 286.153V277.767H248.928V279.445H246.406V281.122H248.611V282.799H246.406V284.476H249.069V286.154H244.73L244.729 286.153Z" fill="white"/>
<path d="M254.816 286.153L253.128 282.951H252.318V286.153H250.641V277.767H253.948C256.939 277.767 257.233 281.977 254.769 282.693L256.716 286.153H254.816ZM252.318 281.321H253.796C254.933 281.321 254.933 279.444 253.796 279.444H252.318V281.321Z" fill="white"/>
<path d="M257.831 286.153V277.767H259.509V286.153H257.831Z" fill="white"/>
<path d="M263.075 286.153H261.397V277.591H261.843L266.076 282.517V277.778H267.765V286.329H267.32L263.074 281.591V286.153H263.075Z" fill="white"/>
<path d="M273.537 286.199C268.001 286.199 267.72 277.908 273.537 277.696C274.534 277.661 275.343 277.954 275.496 278.001L275.296 279.702C274.968 279.561 274.429 279.374 273.537 279.397C270.147 279.514 270.3 284.522 273.537 284.522C273.689 284.522 273.853 284.498 274.006 284.475V281.953H275.706V285.636C275.062 286 274.335 286.199 273.537 286.199L273.537 286.199Z" fill="white"/>
<path d="M205.087 300.637C206.685 301.767 208.419 301.806 209.061 301.747C209.88 301.689 210.581 301.105 210.503 300.344C210.444 299.546 209.841 299.195 209.061 298.922C206.879 298.123 204.931 297.013 204.931 294.675C204.931 292.337 206.547 290.545 208.866 290.428C209.587 290.389 210.541 290.389 212.334 291.012L211.983 293.7C210.444 293.077 209.568 293.097 209.139 293.116C208.145 293.175 207.697 293.896 207.756 294.675C207.834 295.455 208.516 295.805 209.314 296.078C211.477 296.877 213.347 298.123 213.347 300.344C213.347 302.566 211.749 304.435 209.14 304.572C208.36 304.63 206.626 304.532 204.736 303.559L205.087 300.636L205.087 300.637Z" fill="white"/>
<path d="M217.984 304.455V293.311H214.517V290.545H224.239V293.311H220.771V304.455H217.984Z" fill="white"/>
<path d="M253.925 304.455L251.119 299.136H249.775V304.455H246.99V290.526H252.484C257.452 290.526 257.939 297.52 253.848 298.708L257.082 304.456H253.926L253.925 304.455ZM249.775 296.429H252.23C254.12 296.429 254.12 293.312 252.23 293.312H249.775V296.429Z" fill="white"/>
<path d="M258.932 304.455V290.526H265.906V293.312H261.717V296.097H265.38V298.883H261.717V301.669H266.14V304.454H258.932L258.932 304.455Z" fill="white"/>
<path d="M268.459 300.637C270.057 301.767 271.791 301.806 272.433 301.747C273.252 301.689 273.953 301.105 273.875 300.344C273.817 299.546 273.213 299.195 272.433 298.922C270.251 298.123 268.304 297.013 268.304 294.675C268.304 292.337 269.92 290.545 272.239 290.428C272.96 290.389 273.914 290.389 275.707 291.012L275.356 293.7C273.817 293.077 272.94 293.097 272.512 293.116C271.518 293.175 271.07 293.896 271.129 294.675C271.207 295.455 271.889 295.805 272.687 296.078C274.85 296.877 276.72 298.123 276.72 300.344C276.72 302.566 275.122 304.435 272.513 304.572C271.733 304.63 269.999 304.532 268.109 303.559L268.46 300.636H268.459V300.637Z" fill="white"/>
<path d="M241.978 298.811C241.998 298.719 242.069 298.648 242.149 298.629L244.357 298.163C244.378 297.94 244.378 297.718 244.378 297.495C244.378 297.272 244.367 297.05 244.357 296.826L242.149 296.361C242.058 296.34 241.987 296.269 241.978 296.179C241.906 295.804 241.806 295.439 241.683 295.085C241.653 294.993 241.683 294.903 241.744 294.842L243.426 293.332C243.344 293.17 243.263 293.019 243.183 292.867L243.112 292.745L243.051 292.634C242.959 292.482 242.859 292.331 242.767 292.179L240.62 292.878C240.528 292.909 240.438 292.878 240.377 292.807C240.134 292.523 239.861 292.25 239.577 292.007C239.506 291.946 239.486 291.855 239.506 291.764L240.205 289.617C240.053 289.516 239.902 289.425 239.75 289.333L239.639 289.272L239.518 289.201C239.365 289.12 239.214 289.039 239.052 288.959L237.542 290.64C237.481 290.711 237.38 290.731 237.299 290.701C236.945 290.579 236.581 290.478 236.205 290.407C236.114 290.386 236.043 290.315 236.023 290.235L235.558 288.027C235.335 288.007 235.112 288.007 234.889 288.007C234.666 288.007 234.444 288.017 234.221 288.027L233.755 290.235C233.735 290.326 233.664 290.397 233.573 290.407C233.199 290.478 232.834 290.578 232.479 290.701C232.388 290.731 232.297 290.701 232.236 290.64L230.737 288.969C230.575 289.05 230.424 289.131 230.271 289.212L230.15 289.283L230.039 289.343C229.887 289.435 229.736 289.536 229.583 289.627L230.283 291.774C230.313 291.866 230.283 291.956 230.212 292.017C229.928 292.26 229.654 292.533 229.412 292.817C229.351 292.888 229.259 292.908 229.169 292.888L227.022 292.189C226.921 292.341 226.829 292.492 226.738 292.644L226.677 292.755L226.606 292.877C226.525 293.029 226.444 293.18 226.363 293.342L228.045 294.852C228.116 294.913 228.136 295.014 228.105 295.095C227.984 295.449 227.882 295.813 227.811 296.189C227.791 296.28 227.72 296.351 227.64 296.371L225.432 296.836C225.411 297.059 225.411 297.282 225.411 297.505C225.411 297.728 225.422 297.95 225.432 298.173L227.64 298.639C227.731 298.659 227.802 298.73 227.811 298.821C227.882 299.195 227.983 299.56 228.105 299.915C228.136 300.006 228.105 300.097 228.045 300.158L226.363 301.667C226.445 301.83 226.526 301.981 226.606 302.133L226.677 302.254L226.738 302.365C226.829 302.518 226.93 302.669 227.022 302.821L229.169 302.122C229.26 302.091 229.351 302.122 229.412 302.193C229.654 302.476 229.928 302.75 230.212 302.993C230.283 303.053 230.303 303.145 230.283 303.235L229.583 305.383C229.736 305.483 229.887 305.575 230.039 305.666L230.15 305.727L230.271 305.798C230.424 305.879 230.575 305.97 230.737 306.041L232.247 304.36C232.307 304.289 232.409 304.268 232.489 304.299C232.844 304.42 233.208 304.522 233.583 304.593C233.675 304.613 233.746 304.684 233.765 304.765L234.231 306.972C234.454 306.993 234.676 306.993 234.9 306.993C235.123 306.993 235.345 306.983 235.568 306.972L236.034 304.765C236.054 304.673 236.125 304.602 236.216 304.593C236.59 304.522 236.955 304.421 237.31 304.299C237.401 304.268 237.492 304.299 237.552 304.36L239.062 306.041C239.225 305.96 239.376 305.878 239.528 305.798L239.649 305.727L239.76 305.666C239.913 305.575 240.064 305.474 240.216 305.383L239.516 303.235C239.486 303.144 239.516 303.053 239.587 302.993C239.871 302.75 240.145 302.476 240.387 302.193C240.448 302.122 240.54 302.101 240.63 302.122L242.777 302.821C242.878 302.669 242.969 302.517 243.061 302.365L243.122 302.254L243.193 302.133C243.274 301.981 243.364 301.829 243.435 301.667L241.754 300.158C241.683 300.097 241.663 299.995 241.693 299.915C241.815 299.55 241.906 299.186 241.977 298.811L241.978 298.811ZM234.888 301.049C232.933 301.049 231.344 299.46 231.344 297.505C231.344 295.55 232.933 293.96 234.888 293.96C236.843 293.96 238.433 295.55 238.433 297.505C238.433 299.46 236.852 301.049 234.888 301.049Z" fill="white"/>
<path d="M27.7924 129.814V134.972H18.5406V129.814H19.4962V133.896H22.4767V130.061H23.426V133.896H26.8305V129.814H27.7924ZM27.7924 127.758H18.5406V126.682H26.8178V122.6H27.7924V127.758ZM27.7924 115.867V121.024H18.5406V115.867H19.4962V119.949H22.4767V116.114H23.426V119.949H26.8305V115.867H27.7924ZM18.5406 108.526V107.368L27.7924 110.703V111.766L18.5406 115.082V113.943L24.527 111.817C25.2147 111.572 25.8834 111.378 26.5331 111.235C25.8496 111.083 25.1683 110.885 24.4891 110.64L18.5406 108.526ZM27.7924 100.275L24.8498 101.426V105.135L27.7924 106.274V107.362L18.5027 103.704V102.799L27.7924 99.1608V100.275ZM23.8816 101.762L21.0149 102.837C20.6521 102.977 20.207 103.12 19.6797 103.268C20.0847 103.361 20.5298 103.493 21.0149 103.666L23.8816 104.755V101.762ZM27.7924 95.0412V96.117H19.4962V99.0469H18.5406V92.1113H19.4962V95.0412H27.7924ZM23.1538 82.6823C24.6346 82.6823 25.799 83.0578 26.647 83.8088C27.4949 84.5555 27.9189 85.5954 27.9189 86.9285C27.9189 88.2912 27.5034 89.3438 26.6723 90.0863C25.837 90.8245 24.6599 91.1937 23.1412 91.1937C21.6351 91.1937 20.4686 90.8224 19.6417 90.0799C18.8106 89.3374 18.3951 88.2827 18.3951 86.9159C18.3951 85.587 18.817 84.5491 19.6607 83.8024C20.5045 83.0557 21.6688 82.6823 23.1538 82.6823ZM23.1538 90.0546C24.4068 90.0546 25.3581 89.7888 26.0078 89.2573C26.6533 88.7215 26.976 87.9452 26.976 86.9285C26.976 85.9034 26.6533 85.1292 26.0078 84.6061C25.3624 84.083 24.411 83.8214 23.1538 83.8214C21.9093 83.8214 20.9664 84.083 20.3252 84.6061C19.6797 85.125 19.357 85.8949 19.357 86.9159C19.357 87.941 19.6818 88.7215 20.3315 89.2573C20.977 89.7888 21.9177 90.0546 23.1538 90.0546ZM23.9449 79.5373H27.7924V80.6131H18.5406V78.0755C18.5406 76.9406 18.7579 76.1032 19.1924 75.5632C19.627 75.019 20.2809 74.7469 21.1542 74.7469C22.3776 74.7469 23.2045 75.367 23.6348 76.6074L27.7924 74.0951V75.367L23.9449 77.6072V79.5373ZM23.021 79.5373V78.0628C23.021 77.3034 22.8712 76.7466 22.5717 76.3922C22.2679 76.0378 21.8144 75.8606 21.2111 75.8606C20.5994 75.8606 20.1585 76.042 19.8885 76.4049C19.6185 76.7634 19.4835 77.3414 19.4835 78.1388V79.5373H23.021ZM25.3307 67.3809C26.1449 67.3809 26.7799 67.6763 27.2355 68.2669C27.6911 68.8575 27.9189 69.6591 27.9189 70.6716C27.9189 71.7684 27.7776 72.6122 27.4949 73.2028H26.4571C26.6174 72.8231 26.744 72.4097 26.8368 71.9625C26.9296 71.5153 26.976 71.0724 26.976 70.6336C26.976 69.9164 26.841 69.3764 26.571 69.0136C26.2968 68.6508 25.9171 68.4694 25.432 68.4694C25.1113 68.4694 24.8498 68.5348 24.6473 68.6656C24.4406 68.7921 24.2507 69.0073 24.0777 69.311C23.9048 69.6106 23.7086 70.0683 23.4892 70.6842C23.1813 71.5449 22.8163 72.1608 22.3945 72.532C21.9726 72.8991 21.422 73.0826 20.7428 73.0826C20.0299 73.0826 19.4624 72.8147 19.0406 72.2789C18.6187 71.7431 18.4078 71.0344 18.4078 70.1527C18.4078 69.233 18.5765 68.3871 18.914 67.6151L19.8506 67.9505C19.5299 68.7141 19.3696 69.4566 19.3696 70.178C19.3696 70.7475 19.492 71.1926 19.7367 71.5132C19.9813 71.8338 20.321 71.9941 20.7555 71.9941C21.0761 71.9941 21.3398 71.9351 21.5465 71.817C21.749 71.6988 21.9367 71.5006 22.1097 71.2221C22.2785 70.9395 22.4662 70.5091 22.6729 69.9312C23.0188 68.9609 23.3901 68.2943 23.7867 67.9315C24.1832 67.5645 24.6979 67.3809 25.3307 67.3809Z" fill="white"/>
<path d="M339.349 121.203H337.332V105.647H331.838V103.856H344.842V105.647H339.349V121.203ZM360.635 121.203H358.618V113.04H349.482V121.203H347.465V103.856H349.482V111.236H358.618V103.856H360.635V121.203ZM375.075 121.203H365.405V103.856H375.075V105.647H367.422V111.236H374.612V113.016H367.422V119.399H375.075V121.203ZM396.243 108.91C396.243 110.666 395.641 112.019 394.439 112.968C393.245 113.91 391.532 114.38 389.301 114.38H387.261V121.203H385.243V103.856H389.74C394.075 103.856 396.243 105.541 396.243 108.91ZM387.261 112.648H389.076C390.864 112.648 392.157 112.359 392.956 111.782C393.755 111.204 394.154 110.279 394.154 109.005C394.154 107.858 393.779 107.004 393.027 106.442C392.276 105.881 391.105 105.6 389.515 105.6H387.261V112.648ZM399.885 121.203V103.856H401.902V121.203H399.885ZM412.011 121.203H409.994V105.647H404.501V103.856H417.505V105.647H412.011V121.203Z" fill="white"/>
</g>
<defs>
<filter id="filter0_d_2874_1442" x="1.37237" y="1.7839" width="500.641" height="436.592" filterUnits="userSpaceOnUse" color-interpolation-filters="sRGB">
<feFlood flood-opacity="0" result="BackgroundImageFix"/>
<feColorMatrix in="SourceAlpha" type="matrix" values="0 0 0 0 0 0 0 0 0 0 0 0 0 0 0 0 0 0 127 0" result="hardAlpha"/>
<feOffset dx="1.89" dy="1.89"/>
<feGaussianBlur stdDeviation="1.35"/>
<feColorMatrix type="matrix" values="0 0 0 0 0 0 0 0 0 0 0 0 0 0 0 0 0 0 0.75 0"/>
<feBlend mode="normal" in2="BackgroundImageFix" result="effect1_dropShadow_2874_1442"/>
<feBlend mode="normal" in="SourceGraphic" in2="effect1_dropShadow_2874_1442" result="shape"/>
</filter>
<filter id="filter1_d_2874_1442" x="50.2725" y="225.031" width="226.744" height="160.601" filterUnits="userSpaceOnUse" color-interpolation-filters="sRGB">
<feFlood flood-opacity="0" result="BackgroundImageFix"/>
<feColorMatrix in="SourceAlpha" type="matrix" values="0 0 0 0 0 0 0 0 0 0 0 0 0 0 0 0 0 0 127 0" result="hardAlpha"/>
<feOffset dx="1.89" dy="1.89"/>
<feGaussianBlur stdDeviation="1.35"/>
<feColorMatrix type="matrix" values="0 0 0 0 0 0 0 0 0 0 0 0 0 0 0 0 0 0 0.5 0"/>
<feBlend mode="normal" in2="BackgroundImageFix" result="effect1_dropShadow_2874_1442"/>
<feBlend mode="normal" in="SourceGraphic" in2="effect1_dropShadow_2874_1442" result="shape"/>
</filter>
<filter id="filter2_d_2874_1442" x="17.5851" y="66.571" width="404.51" height="250.119" filterUnits="userSpaceOnUse" color-interpolation-filters="sRGB">
<feFlood flood-opacity="0" result="BackgroundImageFix"/>
<feColorMatrix in="SourceAlpha" type="matrix" values="0 0 0 0 0 0 0 0 0 0 0 0 0 0 0 0 0 0 127 0" result="hardAlpha"/>
<feOffset dx="1.89" dy="1.89"/>
<feGaussianBlur stdDeviation="1.35"/>
<feColorMatrix type="matrix" values="0 0 0 0 0 0 0 0 0 0 0 0 0 0 0 0 0 0 0.2 0"/>
<feBlend mode="normal" in2="BackgroundImageFix" result="effect1_dropShadow_2874_1442"/>
<feBlend mode="normal" in="SourceGraphic" in2="effect1_dropShadow_2874_1442" result="shape"/>
</filter>
<linearGradient id="paint0_linear_2874_1442" x1="55.1029" y1="301.431" x2="267.052" y2="301.431" gradientUnits="userSpaceOnUse">
<stop stop-color="#FEBC12"/>
<stop offset="1" stop-color="#FED00E"/>
</linearGradient>
<linearGradient id="paint1_linear_2874_1442" x1="51.0822" y1="375.672" x2="61.8231" y2="375.672" gradientUnits="userSpaceOnUse">
<stop stop-color="#FEBC12"/>
<stop offset="1" stop-color="#FED00E"/>
</linearGradient>
<linearGradient id="paint2_linear_2874_1442" x1="258.977" y1="245.711" x2="272.426" y2="245.711" gradientUnits="userSpaceOnUse">
<stop stop-color="#FEBC12"/>
<stop offset="1" stop-color="#FED00E"/>
</linearGradient>
</defs>
</svg>
