<svg width="1350" height="250" viewBox="0 0 1350 250" fill="none" xmlns="http://www.w3.org/2000/svg">
<g clip-path="url(#clip0_2173_361)">
<path d="M199.344 130.475C200.194 126.024 200.244 123.574 199.344 119.123L181.044 115.122C180.394 111.321 179.344 107.67 177.994 104.169L192.044 92.1162C190.544 87.8652 189.294 85.7147 186.244 82.3137L168.344 88.1152C165.844 85.2142 163.094 82.5137 160.044 80.1632L166.744 63.8093C163.444 60.7083 161.394 59.3583 157.144 57.7078L143.694 71.2113C140.794 70.2108 137.844 69.4608 134.794 68.9108L130.694 50.6564C126.243 49.7564 123.744 49.8064 119.344 50.6564L116.144 68.7608C112.544 69.3108 109.094 70.2113 105.794 71.4113L92.6437 58.0078C88.3937 59.5583 86.2937 60.9088 82.9937 64.0093L89.5937 80.5132C86.6937 82.8137 84.0937 85.3642 81.6937 88.2152L63.4938 82.9637C60.5438 86.4147 59.3938 88.6152 58.0438 92.9162L72.1438 104.219C70.7938 107.67 69.7438 111.321 69.0938 115.072L50.6939 119.073C49.7439 123.524 49.7939 125.974 50.6939 130.425L68.9438 133.726C69.5438 137.677 70.5938 141.528 71.9938 145.179L57.8938 157.682C59.4938 161.933 60.7438 164.033 63.8438 167.384L81.4437 161.333C83.7437 164.083 86.2937 166.584 89.0437 168.885L82.1437 185.439C85.4437 188.54 87.4937 189.94 91.7437 191.54L105.194 178.187C108.644 179.487 112.294 180.438 116.044 181.038L119.294 199.342C123.744 200.192 126.193 200.242 130.644 199.342L134.744 180.938C138.094 180.387 141.344 179.487 144.444 178.387L157.594 192.04C161.844 190.49 163.944 189.19 167.294 186.139L160.694 169.235C163.744 166.784 166.594 163.983 169.094 160.933L187.244 167.434C190.344 164.133 191.644 161.983 193.244 157.782L178.194 145.279C179.594 141.628 180.644 137.777 181.244 133.776L199.394 130.525L199.344 130.475V130.475Z" fill="#532F90"/>
<path d="M121.344 87.8652V100.618C110.594 103.669 104.594 109.971 101.394 120.423H121.344V131.025H101.394C103.844 143.478 110.794 146.779 121.344 150.08V162.083C73.2443 151.03 79.5442 94.7667 121.344 87.8647V87.8652Z" fill="white"/>
<path d="M128.544 162.083V137.177H140.244V144.379C146.244 139.277 147.944 136.327 148.844 131.025H128.544V87.8652C145.744 91.5662 152.594 97.5676 160.494 114.122H146.994C144.444 109.57 142.944 107.97 140.244 105.669V120.423H161.894C163.894 146.079 146.994 162.083 128.544 162.083V162.083Z" fill="white"/>
<path d="M199.395 130.525L199.345 130.475C200.195 126.025 200.245 123.575 199.345 119.125L181.045 115.125C180.395 111.32 179.345 107.67 177.995 104.17L192.045 92.115C190.545 87.865 189.295 85.715 186.245 82.315L168.345 88.115C165.845 85.215 163.095 82.515 160.045 80.165L166.745 63.81C163.445 60.71 161.395 59.36 157.145 57.71L143.695 71.21C140.795 70.21 137.845 69.46 134.795 68.91L130.695 50.655C126.245 49.755 123.745 49.805 119.345 50.655L116.145 68.76C112.545 69.31 109.095 70.21 105.795 71.41L92.645 58.01C88.395 59.56 86.295 60.91 82.995 64.01L89.595 80.515C86.695 82.815 84.095 85.365 81.695 88.215L63.495 82.965C60.545 86.415 59.395 88.615 58.045 92.915L72.145 104.22C70.795 107.67 69.745 111.32 69.095 115.075L50.695 119.075C49.745 123.525 49.795 125.975 50.695 130.425L68.945 133.725C69.545 137.68 70.595 141.53 71.995 145.18L57.895 157.685C59.495 161.935 60.745 164.035 63.845 167.385L81.445 161.335C83.745 164.085 86.295 166.585 89.045 168.885L82.145 185.44C85.445 188.54 87.495 189.94 91.745 191.54L105.195 178.19C108.645 179.49 112.295 180.44 116.045 181.04L119.295 199.345C123.745 200.195 126.195 200.245 130.645 199.345L134.745 180.94C138.095 180.39 141.345 179.49 144.445 178.39L157.595 192.04C161.845 190.49 163.945 189.19 167.295 186.14L160.695 169.235C163.745 166.785 166.595 163.985 169.095 160.935L187.245 167.435C190.345 164.135 191.645 161.985 193.245 157.785L178.195 145.28C179.595 141.63 180.645 137.78 181.245 133.775L199.395 130.525V130.525ZM121.345 100.62C110.595 103.67 104.595 109.97 101.395 120.425H121.345V131.025H101.395C103.845 143.48 110.795 146.78 121.345 150.08V162.085C73.245 151.03 79.545 94.77 121.345 87.865V100.62ZM128.545 162.085V137.18H140.245V144.38C146.245 139.28 147.945 136.33 148.845 131.025H128.545V87.865C145.745 91.565 152.595 97.57 160.495 114.125H146.995C144.445 109.57 142.945 107.97 140.245 105.67V120.425H161.895C163.895 146.08 146.995 162.085 128.545 162.085V162.085Z" fill="#532F90"/>
<path d="M303.5 161V89H339.54V103.4H317.896V117.8H336.841V132.2H317.896V146.6H340.74V161H303.5V161Z" fill="#532F90"/>
<path d="M368.634 161H354.237V87.5H358.086L394.427 129.8V89.1H408.923V162.5H405.074L368.634 121.85V161Z" fill="#532F90"/>
<path d="M458.411 161.4C410.923 161.4 408.473 90.25 458.411 88.4C466.959 88.1 473.907 90.6 475.207 91L473.507 105.6C470.708 104.4 466.059 102.8 458.411 103C429.318 104 430.618 147 458.411 147C459.711 147 461.11 146.8 462.46 146.6V124.95H477.056V156.55C471.508 159.65 465.259 161.4 458.461 161.4H458.411V161.4Z" fill="#532F90"/>
<path d="M492.803 161V89H507.199V161H492.803Z" fill="#532F90"/>
<path d="M537.792 161H523.396V87.5H527.245L563.584 129.8V89.1H578.084V162.5H574.234L537.792 121.85V161V161Z" fill="#532F90"/>
<path d="M594.279 161V89H630.319V103.4H608.674V117.8H627.619V132.2H608.674V146.6H631.519V161H594.279V161Z" fill="#532F90"/>
<path d="M645.014 161V89H681.059V103.4H659.414V117.8H678.359V132.2H659.414V146.6H682.259V161H645.014V161Z" fill="#532F90"/>
<path d="M731.145 131.3C752.29 125.15 749.74 89 724.095 89H695.705V161H710.1V133.5H717.05L731.545 161H747.84L731.145 131.3ZM722.8 119.5H710.1V103.4H722.8C732.545 103.4 732.545 119.5 722.8 119.5V119.5Z" fill="#532F90"/>
<path d="M757.438 161V89H771.833V161H757.438Z" fill="#532F90"/>
<path d="M802.428 161H788.028V87.5H791.878L828.218 129.8V89.1H842.718V162.5H838.868L802.428 121.85V161Z" fill="#532F90"/>
<path d="M892.203 161.4C844.718 161.4 842.268 90.25 892.203 88.4C900.753 88.1 907.703 90.6 908.998 91L907.303 105.6C904.503 104.4 899.853 102.8 892.203 103C863.113 104 864.413 147 892.203 147C893.503 147 894.903 146.8 896.253 146.6V124.95H910.848V156.55C905.303 159.65 899.053 161.4 892.253 161.4H892.203V161.4Z" fill="#532F90"/>
<path d="M953.687 141.25C961.937 147.1 970.882 147.3 974.232 147C978.482 146.7 982.082 143.7 981.682 139.75C981.382 135.6 978.282 133.8 974.232 132.4C962.987 128.25 952.887 122.55 952.887 110.45C952.887 98.35 961.237 89.1 973.232 88.5C976.982 88.3 981.882 88.3 991.127 91.5L989.332 105.4C981.382 102.2 976.832 102.3 974.632 102.4C969.487 102.7 967.187 106.45 967.487 110.45C967.887 114.5 971.432 116.3 975.532 117.7C986.682 121.85 996.377 128.25 996.377 139.75C996.377 151.25 988.132 160.9 974.632 161.6C970.587 161.9 961.637 161.4 951.887 156.35L953.687 141.25V141.25Z" fill="#532F90"/>
<path d="M1020.32 161V103.4H1002.43V89.1H1052.66V103.4H1034.77V161H1020.32Z" fill="#532F90"/>
<path d="M1095.8 87.8C1046.27 87.8 1046.27 162 1095.8 162C1145.34 162 1145.34 87.8 1095.8 87.8ZM1095.8 147.1C1067.01 147.1 1067.01 102.6 1095.8 102.6C1124.59 102.6 1124.6 147.1 1095.8 147.1Z" fill="#532F90"/>
<path d="M1181.83 131.3C1202.97 125.15 1200.43 89 1174.79 89H1146.39V161H1160.79V133.5H1167.73L1182.23 161H1198.53L1181.83 131.3ZM1173.48 119.5H1160.79V103.4H1173.48C1183.23 103.4 1183.23 119.5 1173.48 119.5V119.5Z" fill="#532F90"/>
<path d="M1208.13 161V89H1244.17V103.4H1222.52V117.8H1241.47V132.2H1222.52V146.6H1245.37V161H1208.13V161Z" fill="#532F90"/>
<path d="M1257.32 141.25C1265.56 147.1 1274.51 147.3 1277.86 147C1282.11 146.7 1285.71 143.7 1285.31 139.75C1285.01 135.6 1281.91 133.8 1277.86 132.4C1266.61 128.25 1256.52 122.55 1256.52 110.45C1256.52 98.35 1264.86 89.1 1276.86 88.5C1280.61 88.3 1285.51 88.3 1294.76 91.5L1292.96 105.4C1285.01 102.2 1280.46 102.3 1278.26 102.4C1273.11 102.7 1270.81 106.45 1271.11 110.45C1271.51 114.5 1275.06 116.3 1279.16 117.7C1290.31 121.85 1300 128.25 1300 139.75C1300 151.25 1291.76 160.9 1278.26 161.6C1274.21 161.9 1265.26 161.4 1255.52 156.35L1257.32 141.25V141.25Z" fill="#532F90"/>
</g>
<defs>
<clipPath id="clip0_2173_361">
<rect width="1350" height="250" fill="white"/>
</clipPath>
</defs>
</svg>
